<svg width="500" height="899"  viewBox="0 0 96 35" fill="none" xmlns="http://www.w3.org/2000/svg">
<g filter="url(#filter0_d_738_1028)">
<rect width="87.9122" height="26.7004" rx="13.3502" transform="matrix(0.999994 -0.00340917 0.0033076 0.999995 4 0.299683)" fill="url(#paint0_radial_738_1028)"/>
<path d="M20.4714 19.3056C19.8556 19.3077 19.301 19.204 18.8076 18.9946C18.3142 18.7763 17.9261 18.4697 17.6433 18.0748C17.3604 17.6798 17.2182 17.2185 17.2164 16.6906L18.8264 16.6851C18.8629 17.0809 19.0179 17.4059 19.2915 17.6601C19.5739 17.9142 19.9658 18.0405 20.4672 18.0388C20.9863 18.037 21.3906 17.9124 21.6801 17.6651C21.9696 17.409 22.1137 17.083 22.1123 16.6871C22.1113 16.3792 22.0181 16.1288 21.8327 15.9358C21.6561 15.7429 21.4313 15.5941 21.1582 15.4895C20.8939 15.3848 20.5241 15.2717 20.0486 15.1501C19.4498 14.9938 18.961 14.8371 18.5822 14.68C18.2122 14.5142 17.8946 14.2601 17.6295 13.9179C17.3645 13.5757 17.231 13.1187 17.2291 12.5468C17.2274 12.0189 17.3578 11.5566 17.6204 11.1598C17.883 10.763 18.2515 10.4583 18.7259 10.2455C19.2003 10.0327 19.7498 9.92528 20.3744 9.92315C21.263 9.92012 21.9895 10.142 22.5541 10.5887C23.1274 11.0267 23.4461 11.6326 23.5102 12.4066L21.8475 12.4123C21.82 12.0781 21.6607 11.7927 21.3696 11.5561C21.0785 11.3196 20.6954 11.2021 20.2203 11.2038C19.7892 11.2052 19.4377 11.3164 19.1657 11.5373C18.8937 11.7581 18.7583 12.0753 18.7597 12.4888C18.7606 12.7703 18.845 13.0032 19.0128 13.1874C19.1893 13.3627 19.4097 13.5027 19.674 13.6074C19.9383 13.7121 20.2993 13.8252 20.7572 13.9468C21.3648 14.1119 21.858 14.2774 22.2369 14.4432C22.6245 14.6091 22.9509 14.8675 23.216 15.2185C23.4899 15.5607 23.6278 16.0221 23.6297 16.6027C23.6312 17.069 23.5051 17.5093 23.2513 17.9237C23.0064 18.338 22.6424 18.6736 22.1594 18.9304C21.6851 19.1783 21.1225 19.3034 20.4714 19.3056ZM27.1485 13.1464L27.1619 17.1714C27.1628 17.4441 27.225 17.6418 27.3486 17.7646C27.4809 17.8785 27.701 17.9349 28.009 17.9339L28.9327 17.9307L28.9369 19.1844L27.7492 19.1884C27.0718 19.1907 26.5522 19.0342 26.1904 18.7187C25.8287 18.4032 25.6466 17.8891 25.6443 17.1765L25.631 13.1516L24.7732 13.1545L24.7691 11.9273L25.6269 11.9243L25.6209 10.1164L27.1385 10.1112L27.1445 11.9192L28.9128 11.9131L28.9169 13.1404L27.1485 13.1464ZM29.8098 15.5127C29.8074 14.7825 29.9548 14.1354 30.2521 13.5713C30.5581 13.0072 30.9702 12.5703 31.4882 12.2607C32.015 11.9421 32.5952 11.7818 33.2286 11.7796C33.8004 11.7777 34.2979 11.8904 34.7209 12.1177C35.1527 12.3361 35.4968 12.6121 35.753 12.9455L35.7495 11.8898L37.2671 11.8846L37.2912 19.1559L35.7736 19.1611L35.77 18.079C35.516 18.4229 35.1694 18.7101 34.7303 18.9403C34.2912 19.1705 33.7901 19.2866 33.227 19.2885C32.6024 19.2907 32.03 19.1343 31.5099 18.8193C30.9898 18.4956 30.5748 18.0483 30.265 17.4775C29.964 16.8979 29.8122 16.243 29.8098 15.5127ZM35.7615 15.5189C35.7599 15.0174 35.6528 14.5823 35.4405 14.2135C35.2369 13.8447 34.9677 13.5641 34.6327 13.3716C34.2978 13.1792 33.9367 13.0837 33.5496 13.085C33.1625 13.0863 32.8022 13.1843 32.4685 13.379C32.1348 13.5649 31.863 13.843 31.6531 14.2132C31.4519 14.5746 31.3522 15.006 31.3538 15.5075C31.3555 16.009 31.4581 16.4485 31.6617 16.8261C31.8741 17.2037 32.1478 17.4931 32.4828 17.6943C32.8265 17.8867 33.1875 17.9822 33.5658 17.9809C33.9529 17.9796 34.3133 17.8816 34.647 17.6869C34.9806 17.4922 35.248 17.2098 35.4492 16.8396C35.6591 16.4606 35.7632 16.0203 35.7615 15.5189ZM40.751 12.9285C40.9697 12.5582 41.2591 12.2713 41.6191 12.0678C41.9879 11.8554 42.423 11.7483 42.9245 11.7466L42.9296 13.3038L42.547 13.3051C41.9575 13.3071 41.5093 13.4582 41.2024 13.7583C40.9043 14.0585 40.7564 14.5781 40.7589 15.3171L40.7715 19.144L39.2671 19.1492L39.2431 11.8779L40.7475 11.8728L40.751 12.9285ZM46.0669 13.0819L46.0802 17.1069C46.0811 17.3796 46.1434 17.5773 46.267 17.7001C46.3993 17.814 46.6194 17.8704 46.9273 17.8694L47.8511 17.8662L47.8552 19.1199L46.6676 19.1239C45.9901 19.1262 45.4706 18.9697 45.1088 18.6542C44.7471 18.3387 44.565 17.8246 44.5626 17.112L44.5493 13.0871L43.6916 13.09L43.6875 11.8628L44.5453 11.8598L44.5393 10.0519L46.0569 10.0467L46.0629 11.8547L47.8312 11.8486L47.8353 13.0759L46.0669 13.0819ZM56.4063 11.7006C56.9606 11.6987 57.4537 11.8158 57.8855 12.0519C58.3262 12.2879 58.6705 12.6387 58.9183 13.1041C59.175 13.5695 59.3044 14.1321 59.3066 14.7919L59.3208 19.0808L57.8296 19.0859L57.8162 15.0214C57.814 14.3703 57.6496 13.8738 57.323 13.5318C56.9963 13.181 56.5514 13.0066 55.9884 13.0085C55.4253 13.0104 54.9772 13.1879 54.6441 13.541C54.3197 13.8852 54.1586 14.3828 54.1607 15.0338L54.1742 19.0983L52.6698 19.1035L52.6375 9.33808L54.1419 9.33296L54.1529 12.6717C54.407 12.3629 54.7274 12.1242 55.1139 11.9558C55.5093 11.7873 55.9401 11.7022 56.4063 11.7006ZM67.8914 15.2378C67.8923 15.5105 67.8755 15.7569 67.841 15.9769L62.2853 15.9959C62.3312 16.5764 62.5483 17.0419 62.9366 17.3925C63.3248 17.7431 63.8005 17.9174 64.3635 17.9155C65.1729 17.9127 65.7436 17.5721 66.0757 16.8935L67.6989 16.888C67.4811 17.5574 67.0827 18.1086 66.5035 18.5416C65.933 18.9659 65.2211 19.1795 64.3677 19.1824C63.6727 19.1847 63.0476 19.0329 62.4923 18.7269C61.9458 18.412 61.5133 17.9736 61.1947 17.4116C60.8849 16.8408 60.7287 16.1815 60.7263 15.4337C60.7238 14.6859 60.8712 14.03 61.1684 13.4659C61.4745 12.893 61.8997 12.4517 62.4441 12.1419C62.9974 11.8321 63.6303 11.676 64.3429 11.6736C65.0291 11.6712 65.641 11.8187 66.1787 12.116C66.7163 12.4133 67.1356 12.8342 67.4365 13.3786C67.7374 13.9142 67.889 14.5339 67.8914 15.2378ZM66.3194 14.768C66.3088 14.2138 66.1094 13.7702 65.7212 13.4372C65.333 13.1042 64.8529 12.9387 64.2811 12.9407C63.762 12.9424 63.3183 13.1111 62.9499 13.4467C62.5815 13.7734 62.363 14.2185 62.2945 14.7818L66.3194 14.768ZM70.8683 12.8258C71.087 12.4556 71.3764 12.1687 71.7364 11.9651C72.1052 11.7527 72.5404 11.6456 73.0418 11.6439L73.047 13.2011L72.6643 13.2024C72.0748 13.2044 71.6267 13.3555 71.3197 13.6557C71.0216 13.9558 70.8738 14.4754 70.8762 15.2144L70.8889 19.0414L69.3845 19.0465L69.3604 11.7752L70.8648 11.7701L70.8683 12.8258ZM81.1007 15.1927C81.1016 15.4655 81.0848 15.7118 81.0504 15.9319L75.4947 15.9508C75.5406 16.5313 75.7577 16.9969 76.1459 17.3475C76.5342 17.6981 77.0098 17.8724 77.5729 17.8705C78.3823 17.8677 78.953 17.5271 79.2851 16.8485L80.9082 16.843C80.6905 17.5123 80.292 18.0635 79.7128 18.4966C79.1424 18.9208 78.4305 19.1344 77.5771 19.1373C76.8821 19.1397 76.2569 18.9879 75.7017 18.6818C75.1552 18.367 74.7226 17.9286 74.404 17.3666C74.0942 16.7958 73.9381 16.1365 73.9356 15.3887C73.9331 14.6409 74.0805 13.985 74.3778 13.4209C74.6838 12.848 75.109 12.4067 75.6535 12.0969C76.2067 11.7871 76.8396 11.631 77.5522 11.6285C78.2385 11.6262 78.8504 11.7737 79.388 12.071C79.9257 12.3683 80.345 12.7891 80.6459 13.3336C80.9468 13.8692 81.0984 14.4889 81.1007 15.1927ZM79.5288 14.723C79.5181 14.1688 79.3187 13.7252 78.9305 13.3922C78.5423 13.0592 78.0623 12.8937 77.4905 12.8956C76.9714 12.8974 76.5277 13.0661 76.1593 13.4016C75.7908 13.7284 75.5724 14.1734 75.5039 14.7367L79.5288 14.723Z" fill="white"/>
</g>
<defs>
<filter id="filter0_d_738_1028" x="0" y="0" width="96" height="35" filterUnits="userSpaceOnUse" color-interpolation-filters="sRGB">
<feFlood flood-opacity="0" result="BackgroundImageFix"/>
<feColorMatrix in="SourceAlpha" type="matrix" values="0 0 0 0 0 0 0 0 0 0 0 0 0 0 0 0 0 0 127 0" result="hardAlpha"/>
<feOffset dy="4"/>
<feGaussianBlur stdDeviation="2"/>
<feComposite in2="hardAlpha" operator="out"/>
<feColorMatrix type="matrix" values="0 0 0 0 0 0 0 0 0 0 0 0 0 0 0 0 0 0 0.25 0"/>
<feBlend mode="normal" in2="BackgroundImageFix" result="effect1_dropShadow_738_1028"/>
<feBlend mode="normal" in="SourceGraphic" in2="effect1_dropShadow_738_1028" result="shape"/>
</filter>
<radialGradient id="paint0_radial_738_1028" cx="0" cy="0" r="1" gradientUnits="userSpaceOnUse" gradientTransform="translate(43.9561 13.3502) rotate(90) scale(13.3502 43.9561)">
<stop stop-color="#753CBD"/>
<stop offset="0.53125" stop-color="#3D235E" stop-opacity="0.994687"/>
<stop offset="1" stop-color="#2B0D51" stop-opacity="0.99"/>
</radialGradient>
</defs>
</svg>